HIERARCHY
ROOT Hips
{
  OFFSET -10.8026 15.0965 0.651025
  CHANNELS 6 Xposition Yposition Zposition Zrotation Xrotation Yrotation
  JOINT LHipJoint
  {
    OFFSET 0 1.60984 -0.00163934
    CHANNELS 6 Xposition Yposition Zposition Zrotation Xrotation Yrotation
    JOINT LeftUpLeg
    {
      OFFSET 1.74098 -1.60984 0.00163934
      CHANNELS 6 Xposition Yposition Zposition Zrotation Xrotation Yrotation
      JOINT LeftLeg
      {
        OFFSET -0.111475 -6.93934 -0.268852
        CHANNELS 6 Xposition Yposition Zposition Zrotation Xrotation Yrotation
        JOINT LeftFoot
        {
          OFFSET -0.103279 -6.4 -0.236066
          CHANNELS 6 Xposition Yposition Zposition Zrotation Xrotation Yrotation
          JOINT LeftToeBase
          {
            OFFSET 0.00983607 -1.60984 2.07377
            CHANNELS 6 Xposition Yposition Zposition Zrotation Xrotation Yrotation
            End Site
            {
              OFFSET 0 0 1.19016
            }
          }
        }
      }
    }
  }
  JOINT RHipJoint
  {
    OFFSET 0 1.60984 -0.00163934
    CHANNELS 6 Xposition Yposition Zposition Zrotation Xrotation Yrotation
    JOINT RightUpLeg
    {
      OFFSET -1.74098 -1.60984 0.00163934
      CHANNELS 6 Xposition Yposition Zposition Zrotation Xrotation Yrotation
      JOINT RightLeg
      {
        OFFSET 0.111475 -6.93934 -0.268852
        CHANNELS 6 Xposition Yposition Zposition Zrotation Xrotation Yrotation
        JOINT RightFoot
        {
          OFFSET 0.103279 -6.4 -0.236066
          CHANNELS 6 Xposition Yposition Zposition Zrotation Xrotation Yrotation
          JOINT RightToeBase
          {
            OFFSET -0.00983607 -1.60984 2.07377
            CHANNELS 6 Xposition Yposition Zposition Zrotation Xrotation Yrotation
            End Site
            {
              OFFSET 0 0 1.19016
            }
          }
        }
      }
    }
  }
  JOINT LowerBack
  {
    OFFSET 0 1.60984 -0.00163934
    CHANNELS 6 Xposition Yposition Zposition Zrotation Xrotation Yrotation
    JOINT Spine
    {
      OFFSET 0 2.29672 0.170492
      CHANNELS 6 Xposition Yposition Zposition Zrotation Xrotation Yrotation
      JOINT Spine1
      {
        OFFSET 0 2.28689 -0.265574
        CHANNELS 6 Xposition Yposition Zposition Zrotation Xrotation Yrotation
        JOINT Neck
        {
          OFFSET 0 2.42623 -0.0770492
          CHANNELS 6 Xposition Yposition Zposition Zrotation Xrotation Yrotation
          JOINT Neck1
          {
            OFFSET 0 1.77869 0.32459
            CHANNELS 6 Xposition Yposition Zposition Zrotation Xrotation Yrotation
            JOINT Head
            {
              OFFSET 0 0 0
              CHANNELS 6 Xposition Yposition Zposition Zrotation Xrotation Yrotation
              End Site
              {
                OFFSET 0 3.29016 0
              }
            }
          }
        }
        JOINT LeftShoulder
        {
          OFFSET 0.955738 2.42623 -0.0754098
          CHANNELS 6 Xposition Yposition Zposition Zrotation Xrotation Yrotation
          JOINT LeftArm
          {
            OFFSET 1.81967 -0.00819679 0
            CHANNELS 6 Xposition Yposition Zposition Zrotation Xrotation Yrotation
            JOINT LeftForeArm
            {
              OFFSET 4.0918 0.0114754 0
              CHANNELS 6 Xposition Yposition Zposition Zrotation Xrotation Yrotation
              JOINT LeftHand
              {
                OFFSET 5.08361 0.0245902 -0.0819672
                CHANNELS 6 Xposition Yposition Zposition Zrotation Xrotation Yrotation
                JOINT LeftFingerBase
                {
                  OFFSET 0 0 0
                  CHANNELS 6 Xposition Yposition Zposition Zrotation Xrotation Yrotation
                  JOINT LeftHandIndex1
                  {
                    OFFSET 1.7459 -0.111475 -0.0311475
                    CHANNELS 6 Xposition Yposition Zposition Zrotation Xrotation Yrotation
                    End Site
                    {
                      OFFSET 0.977049 -0.0622951 -0.0131148
                    }
                  }
                }
                JOINT LThumb
                {
                  OFFSET 0.952459 -0.347541 0.931148
                  CHANNELS 6 Xposition Yposition Zposition Zrotation Xrotation Yrotation
                  End Site
                  {
                    OFFSET 0.665574 -0.227869 0.0950819
                  }
                }
              }
            }
          }
        }
        JOINT RightShoulder
        {
          OFFSET -0.955738 2.42623 -0.0754098
          CHANNELS 6 Xposition Yposition Zposition Zrotation Xrotation Yrotation
          JOINT RightArm
          {
            OFFSET -1.81967 -0.00819679 0
            CHANNELS 6 Xposition Yposition Zposition Zrotation Xrotation Yrotation
            JOINT RightForeArm
            {
              OFFSET -4.0918 0.0114754 0
              CHANNELS 6 Xposition Yposition Zposition Zrotation Xrotation Yrotation
              JOINT RightHand
              {
                OFFSET -5.08361 0.0245902 -0.0819672
                CHANNELS 6 Xposition Yposition Zposition Zrotation Xrotation Yrotation
                JOINT RightFingerBase
                {
                  OFFSET 0 0 0
                  CHANNELS 6 Xposition Yposition Zposition Zrotation Xrotation Yrotation
                  JOINT RightHandIndex1
                  {
                    OFFSET -1.7459 -0.111475 -0.0311475
                    CHANNELS 6 Xposition Yposition Zposition Zrotation Xrotation Yrotation
                    End Site
                    {
                      OFFSET -0.977049 -0.0622951 -0.0131148
                    }
                  }
                }
                JOINT RThumb
                {
                  OFFSET -0.952459 -0.347541 0.931148
                  CHANNELS 6 Xposition Yposition Zposition Zrotation Xrotation Yrotation
                  End Site
                  {
                    OFFSET -0.665574 -0.227869 0.0950819
                  }
                }
              }
            }
          }
        }
      }
    }
  }
}
MOTION
Frames:	4
Frame Time:	0.0166667
-11.3599 14.9655 0.797794 3.07998 0.835368 108.245 0 1.60984 -0.00163934 0 0 -0 1.74098 -1.60984 0.00163934 4.4338 -7.75803 8.42744 -0.111475 -6.93934 -0.268852 0.0102443 18.0268 -0.292561 -0.103279 -6.4 -0.236066 1.18356 -3.15778 -16.0877 0.00983607 -1.60984 2.07377 2.85411e-011 3.06282e-010 9.38105e-012 0 1.60984 -0.00163934 0 0 -0 -1.74098 -1.60984 0.00163934 -8.52397 1.44629 -16.8714 0.111475 -6.93934 -0.268852 -0.0067571 16.8164 0.271834 0.103279 -6.4 -0.236066 7.18243 -4.33425 -1.16455 -0.00983607 -1.60984 2.07377 6.09951e-012 -1.41706e-010 -1.44334e-011 0 1.60984 -0.00163934 0 0 -0 0 2.29672 0.170492 0.294771 2.97104 1.51769 0 2.28689 -0.265574 0.512619 5.95005 3.02597 0 2.42623 -0.0770492 -3.57702 0.356208 -4.88674 0 1.77869 0.32459 -3.57701 0.356221 -4.88674 0 5.71282e-008 0 14.1731 -6.49745 -25.4958 0.955738 2.42623 -0.0754098 -22.0616 -0.640919 5.76152 1.81967 -0.00819679 1.1945e-009 -40.0524 18.7846 -15.911 4.0918 0.0114754 0 -2.53192 0.676463 -26.3269 5.08361 0.0245902 -0.0819672 -5.08307 28.7322 0.123117 0 0 0 8.62809e-010 -1.68232e-010 -1.14691e-009 1.7459 -0.111475 -0.0311475 1.63208e-009 -4.02744e-010 -2.61994e-009 0.952459 -0.347541 0.931148 0 0 -0 -0.955738 2.42623 -0.0754098 21.5607 4.53641 12.097 -1.81967 -0.00819679 0 17.0356 0.91535 34.2522 -4.0918 0.0114754 0 4.23099 2.12745 47.5962 -5.08361 0.0245902 -0.0819672 -11.0973 -49.0165 0.297594 0 0 0 -5.30981e-010 2.86234e-010 3.51182e-010 -1.7459 -0.111475 -0.0311475 -1.32119e-009 3.65751e-010 6.77355e-010 -0.952459 -0.347541 0.931148 0 0 -0 
-11.3777 14.9448 0.781238 2.6129 0.711977 109.693 0 1.60984 -0.00163934 0 0 -0 1.74098 -1.60984 0.00163934 4.0333 -9.13796 6.63411 -0.111475 -6.93934 -0.268852 0.0139708 19.1141 -0.311146 -0.103279 -6.4 -0.236066 1.21661 -3.48024 -15.7743 0.00983607 -1.60984 2.07377 2.85411e-011 3.06282e-010 9.38105e-012 0 1.60984 -0.00163934 0 0 -0 -1.74098 -1.60984 0.00163934 -8.5553 0.829608 -17.0673 0.111475 -6.93934 -0.268852 -0.00943484 17.7753 0.287977 0.103279 -6.4 -0.236066 7.88206 -5.42008 -1.83206 -0.00983607 -1.60984 2.07377 6.09951e-012 -1.41706e-010 -1.44334e-011 0 1.60984 -0.00163934 0 0 -0 0 2.29672 0.170492 0.533227 3.21702 2.01745 0 2.28689 -0.265574 0.953992 6.44997 4.01439 0 2.42623 -0.0770492 -3.38678 0.534891 -4.94654 0 1.77869 0.32459 -3.38678 0.534897 -4.94654 0 5.71282e-008 0 12.8979 -7.31054 -25.3193 0.955738 2.42623 -0.0754098 -22.2361 -0.33202 4.66453 1.81967 -0.00819679 1.1945e-009 -42.3234 17.4171 -13.7312 4.0918 0.0114754 0 -2.59491 0.710548 -27.0404 5.08361 0.0245902 -0.0819672 -4.39428 29.596 0.682298 0 0 0 8.62809e-010 -1.68232e-010 -1.14691e-009 1.7459 -0.111475 -0.0311475 1.63208e-009 -4.02744e-010 -2.61994e-009 0.952459 -0.347541 0.931148 0 0 -0 -0.955738 2.42623 -0.0754098 24.6907 4.47791 10.5125 -1.81967 -0.00819679 0 26.223 -10.5388 28.9839 -4.0918 0.0114754 0 4.7809 2.80263 57.9122 -5.08361 0.0245902 -0.0819672 -6.94173 -33.1628 -2.93013 0 0 0 -5.30981e-010 2.86234e-010 3.51182e-010 -1.7459 -0.111475 -0.0311475 -1.32119e-009 3.65751e-010 6.77355e-010 -0.952459 -0.347541 0.931148 0 0 -0 
-11.4146 14.9318 0.755488 2.12562 0.647588 110.542 0 1.60984 -0.00163934 0 0 -0 1.74098 -1.60984 0.00163934 4.02273 -10.0782 7.42517 -0.111475 -6.93934 -0.268852 0.0158694 19.6128 -0.319774 -0.103279 -6.4 -0.236066 1.60432 -3.41836 -17.1196 0.00983607 -1.60984 2.07377 2.85411e-011 3.06282e-010 9.38105e-012 0 1.60984 -0.00163934 0 0 -0 -1.74098 -1.60984 0.00163934 -8.72979 -0.0668213 -16.5816 0.111475 -6.93934 -0.268852 -0.0130057 18.8164 0.305729 0.103279 -6.4 -0.236066 8.50967 -6.41655 -2.63263 -0.00983607 -1.60984 2.07377 6.09951e-012 -1.41706e-010 -1.44334e-011 0 1.60984 -0.00163934 0 0 -0 0 2.29672 0.170492 0.647753 3.2015 1.30417 0 2.28689 -0.265574 1.22564 6.41762 2.57803 0 2.42623 -0.0770492 -2.843 0.950501 -4.88875 0 1.77869 0.32459 -2.84299 0.950499 -4.88875 0 5.71282e-008 0 11.6548 -7.24589 -24.4839 0.955738 2.42623 -0.0754098 -21.7083 -0.0838841 3.79975 1.81967 -0.00819679 1.1945e-009 -45.0148 15.0512 -10.8645 4.0918 0.0114754 0 -2.6352 0.732935 -27.499 5.08361 0.0245902 -0.0819672 -3.24279 29.4592 0.751922 0 0 0 8.62809e-010 -1.68232e-010 -1.14691e-009 1.7459 -0.111475 -0.0311475 1.63208e-009 -4.02744e-010 -2.61994e-009 0.952459 -0.347541 0.931148 0 0 -0 -0.955738 2.42623 -0.0754098 26.2918 3.96264 8.1761 -1.81967 -0.00819679 0 35.5609 -13.4064 35.2259 -4.0918 0.0114754 0 4.72322 2.74392 56.5012 -5.08361 0.0245902 -0.0819672 -0.844369 -21.8729 -4.15813 0 0 0 -5.30981e-010 2.86234e-010 3.51182e-010 -1.7459 -0.111475 -0.0311475 -1.32119e-009 3.65751e-010 6.77355e-010 -0.952459 -0.347541 0.931148 0 0 -0 
-11.4509 14.9388 0.727561 1.72745 0.820186 110.371 0 1.60984 -0.00163934 0 0 -0 1.74098 -1.60984 0.00163934 2.97608 -10.4137 4.72891 -0.111475 -6.93934 -0.268852 0.014653 19.3034 -0.314419 -0.103279 -6.4 -0.236066 1.21711 -3.36814 -14.6409 0.00983607 -1.60984 2.07377 2.85411e-011 3.06282e-010 9.38105e-012 0 1.60984 -0.00163934 0 0 -0 -1.74098 -1.60984 0.00163934 -9.0562 -0.916607 -15.2653 0.111475 -6.93934 -0.268852 -0.0154245 19.4854 0.3172 0.103279 -6.4 -0.236066 8.90316 -7.00626 -3.46552 -0.00983607 -1.60984 2.07377 6.09951e-012 -1.41706e-010 -1.44334e-011 0 1.60984 -0.00163934 0 0 -0 0 2.29672 0.170492 0.452932 3.02722 0.374668 0 2.28689 -0.265574 0.887698 6.05765 0.726738 0 2.42623 -0.0770492 -2.05637 1.59984 -4.69477 0 1.77869 0.32459 -2.05637 1.59984 -4.69477 0 5.71282e-008 0 10.7858 -5.78362 -23.0469 0.955738 2.42623 -0.0754098 -20.6829 -0.012037 3.54888 1.81967 -0.00819679 1.1945e-009 -47.2604 12.7012 -7.53285 4.0918 0.0114754 0 -2.64393 0.737779 -27.599 5.08361 0.0245902 -0.0819672 -2.09344 28.1282 0.425466 0 0 0 8.62809e-010 -1.68232e-010 -1.14691e-009 1.7459 -0.111475 -0.0311475 1.63208e-009 -4.02744e-010 -2.61994e-009 0.952459 -0.347541 0.931148 0 0 -0 -0.955738 2.42623 -0.0754098 25.8789 3.42472 6.56788 -1.81967 -0.00819679 0 43.983 -11.5834 43.4357 -4.0918 0.0114754 0 4.29743 2.14507 49.1792 -5.08361 0.0245902 -0.0819672 4.14435 -14.2742 -4.45722 0 0 0 -5.30981e-010 2.86234e-010 3.51182e-010 -1.7459 -0.111475 -0.0311475 -1.32119e-009 3.65751e-010 6.77355e-010 -0.952459 -0.347541 0.931148 0 0 -0 
